<?xml version="1.0"?>

<svg xmlns="http://www.w3.org/2000/svg" viewBox="0 0 517 179" role="img" aria-label="CortanaTech Solutions">
  <defs>
    <linearGradient id="icon-grad-01" x1="117.94" y1="40.11" x2="43.47" y2="134.7" gradientUnits="userSpaceOnUse">
      <stop offset="0" stop-color="#29ABE2"></stop>
      <stop offset="1" stop-color="#2E3192"></stop>
    </linearGradient>
    
  </defs>
  
  <path fill="url(#icon-grad-01)" d="m28,82.66v7.33c0,3.31,2.68,5.99,5.99,5.99h7.33c3.31,0,5.99-2.68,5.99-5.99v-7.33c0-3.31-2.68-5.99-5.99-5.99h-7.33c-3.31,0-5.99,2.68-5.99,5.99Zm32.62-25.3h-7.33c-3.31,0-5.99,2.68-5.99,5.99v7.33c0,3.31,2.68,5.99,5.99,5.99h7.33c3.31,0,5.99-2.68,5.99-5.99v-7.33c0-3.31-2.68-5.99-5.99-5.99Zm28.87,79.64h7.33c3.31,0,5.99-2.68,5.99-5.99v-7.33c0-3.31-2.68-5.99-5.99-5.99h-7.33c-3.31,0-5.99,2.68-5.99,5.99v7.33c0,3.31,2.68,5.99,5.99,5.99Zm13.32-66.32v-7.33c0-3.31-2.68-5.99-5.99-5.99h-7.33c-3.31,0-5.99,2.68-5.99,5.99v7.33c0,3.31-2.68,5.99-5.99,5.99h-4.92c-3.31,0-5.99,2.68-5.99,5.99v7.33c0,3.31,2.68,5.99,5.99,5.99h39.91c3.31,0,5.99-2.68,5.99-5.99v-7.33c0-3.31-2.68-5.99-5.99-5.99h-3.71c-3.31,0-5.99-2.68-5.99-5.99Zm-49.52,44.6h7.33c3.31,0,5.99-2.68,5.99-5.99v-7.33c0-3.31-2.68-5.99-5.99-5.99h-7.33c-3.31,0-5.99,2.68-5.99,5.99v7.33c0,3.31,2.68,5.99,5.99,5.99Z"></path>
  
  <text class="ct-main" transform="translate(135.32 100.11)">
    <tspan x="0" y="0">C</tspan>
    <tspan x="32.38" y="0">O</tspan>
    <tspan x="69.74" y="0">R</tspan>
    <tspan x="98.47" y="0">T</tspan>
    <tspan x="122.76" y="0">AN</tspan>
    <tspan x="190.63" y="0">A</tspan>
  </text>
  
  <text class="ct-main" transform="translate(361.81 100.11)">
    <tspan x="0" y="0">T</tspan>
    <tspan x="29.46" y="0">E</tspan>
    <tspan x="54.01" y="0">C</tspan>
    <tspan x="87.48" y="0">H</tspan>
  </text>
  
  <text class="ct-sub" transform="translate(217.07 124.5)">
    <tspan x="0" y="0">S</tspan>
    <tspan x="20.48" y="0">O</tspan>
    <tspan x="44.29" y="0">L</tspan>
    <tspan x="62.07" y="0">U</tspan>
    <tspan x="83.57" y="0">T</tspan>
    <tspan x="104.21" y="0">I</tspan>
    <tspan x="117.95" y="0">O</tspan>
    <tspan x="141.76" y="0">N</tspan>
    <tspan x="163.19" y="0">S</tspan>
  </text>
</svg>