<?xml version="1.0"?>
<svg id="Layer_1" data-name="Layer 1" role="img" aria-label="CortanaTech Solutions" xmlns="http://www.w3.org/2000/svg" xmlns:xlink="http://www.w3.org/1999/xlink" viewBox="0 0 517 179">
  <defs>
  
    
    <linearGradient id="linear-gradient" x1="117.94" y1="40.11" x2="43.47" y2="134.7" gradientUnits="userSpaceOnUse">
      <stop offset="0" stop-color="#29abe2"></stop>
      <stop offset=".99" stop-color="#2e3192"></stop>
    </linearGradient>
  </defs>
  <g>
    <path class="cls-4" d="m222.77,124.74c-.7,0-1.38-.11-2.03-.33-.65-.22-1.22-.53-1.71-.94-.49-.41-.83-.9-1.04-1.46l1.46-.55c.12.35.35.65.69.91.34.26.74.46,1.19.6s.93.21,1.42.21c.56,0,1.08-.09,1.56-.27.48-.18.87-.44,1.17-.77s.45-.71.45-1.15-.15-.82-.46-1.11c-.31-.29-.71-.52-1.19-.69-.48-.17-.99-.3-1.52-.4-.9-.15-1.7-.36-2.41-.64-.71-.28-1.27-.66-1.68-1.16-.41-.5-.62-1.15-.62-1.96,0-.76.22-1.42.66-1.98.44-.56,1.02-1,1.73-1.31.72-.31,1.49-.46,2.33-.46.69,0,1.36.11,2,.32s1.22.53,1.72.93c.5.41.85.91,1.07,1.5l-1.48.54c-.12-.35-.35-.66-.69-.92s-.73-.46-1.19-.6c-.46-.14-.93-.21-1.43-.21-.55,0-1.07.08-1.54.27-.48.19-.87.44-1.16.77-.3.33-.45.71-.45,1.14,0,.52.14.92.41,1.19.28.28.65.48,1.13.62.48.14,1.01.26,1.61.36.84.14,1.62.37,2.34.67s1.3.71,1.73,1.22c.44.51.66,1.13.66,1.88s-.22,1.42-.66,1.98c-.44.56-1.02,1-1.73,1.31s-1.5.46-2.34.46Z"></path>
    <path class="cls-4" d="m244.71,124.74c-.88,0-1.71-.18-2.48-.53-.77-.35-1.46-.84-2.05-1.46-.59-.62-1.05-1.34-1.39-2.15-.33-.82-.5-1.69-.5-2.62s.17-1.8.5-2.62c.33-.82.8-1.53,1.39-2.15.59-.62,1.27-1.1,2.05-1.46.78-.35,1.6-.53,2.48-.53s1.72.18,2.49.53c.78.35,1.46.84,2.05,1.46.59.62,1.05,1.34,1.38,2.15.33.82.5,1.69.5,2.62s-.17,1.8-.5,2.62c-.33.82-.79,1.53-1.38,2.15-.59.62-1.27,1.11-2.05,1.46-.77.35-1.61.53-2.49.53Zm0-1.56c.68,0,1.31-.14,1.89-.41s1.1-.65,1.54-1.13.79-1.03,1.04-1.66c.25-.62.38-1.29.38-2s-.13-1.38-.38-2c-.25-.63-.6-1.18-1.05-1.66-.44-.47-.96-.85-1.54-1.12s-1.21-.41-1.88-.41-1.31.14-1.89.41-1.1.65-1.54,1.13c-.44.48-.79,1.03-1.04,1.66-.25.62-.38,1.29-.38,2s.13,1.38.38,2.01c.25.63.6,1.18,1.05,1.66s.96.85,1.54,1.12c.59.27,1.21.4,1.88.4Z"></path>
    <path class="cls-4" d="m262.47,124.5v-13.02h1.56v11.46h5.83v1.56h-7.39Z"></path>
    <path class="cls-4" d="m285.34,124.74c-1.04,0-1.95-.25-2.71-.76-.77-.51-1.35-1.19-1.77-2.05-.41-.86-.62-1.81-.62-2.86v-7.59h1.56v7.59c0,.74.14,1.43.41,2.06.28.63.68,1.13,1.2,1.5s1.16.56,1.92.56,1.41-.19,1.94-.56c.52-.38.92-.87,1.19-1.5.27-.62.4-1.31.4-2.05v-7.59h1.56v7.59c0,.79-.12,1.52-.35,2.21s-.58,1.29-1.02,1.81c-.44.52-.98.93-1.6,1.22-.63.29-1.33.44-2.11.44Z"></path>
    <path class="cls-4" d="m311.6,111.47v1.56h-4.33v11.46h-1.56v-11.46h-4.32v-1.56h10.22Z"></path>
    <path class="cls-4" d="m322.68,124.5v-13.02h1.56v13.02h-1.56Z"></path>
    <path class="cls-4" d="m342.18,124.74c-.88,0-1.71-.18-2.48-.53-.77-.35-1.46-.84-2.05-1.46-.59-.62-1.05-1.34-1.39-2.15-.33-.82-.5-1.69-.5-2.62s.17-1.8.5-2.62c.33-.82.8-1.53,1.39-2.15.59-.62,1.27-1.1,2.05-1.46.78-.35,1.6-.53,2.48-.53s1.72.18,2.49.53c.78.35,1.46.84,2.05,1.46.59.62,1.05,1.34,1.38,2.15.33.82.5,1.69.5,2.62s-.17,1.8-.5,2.62c-.33.82-.79,1.53-1.38,2.15-.59.62-1.27,1.11-2.05,1.46-.77.35-1.61.53-2.49.53Zm0-1.56c.68,0,1.31-.14,1.89-.41s1.1-.65,1.54-1.13.79-1.03,1.04-1.66c.25-.62.38-1.29.38-2s-.13-1.38-.38-2c-.25-.63-.6-1.18-1.05-1.66-.44-.47-.96-.85-1.54-1.12s-1.21-.41-1.88-.41-1.31.14-1.89.41-1.1.65-1.54,1.13c-.44.48-.79,1.03-1.04,1.66-.25.62-.38,1.29-.38,2s.13,1.38.38,2.01c.25.63.6,1.18,1.05,1.66s.96.85,1.54,1.12c.59.27,1.21.4,1.88.4Z"></path>
    <path class="cls-4" d="m359.95,124.5v-13.02h1.69l6.5,10.19v-10.19h1.56v13.02h-1.68l-6.51-10.19v10.19h-1.56Z"></path>
    <path class="cls-4" d="m385.96,124.74c-.7,0-1.38-.11-2.03-.33-.65-.22-1.22-.53-1.71-.94-.49-.41-.83-.9-1.04-1.46l1.46-.55c.12.35.35.65.69.91.34.26.74.46,1.19.6s.93.21,1.42.21c.56,0,1.08-.09,1.56-.27.48-.18.87-.44,1.17-.77s.45-.71.45-1.15-.15-.82-.46-1.11c-.31-.29-.71-.52-1.19-.69-.48-.17-.99-.3-1.52-.4-.9-.15-1.7-.36-2.41-.64-.71-.28-1.27-.66-1.68-1.16-.41-.5-.62-1.15-.62-1.96,0-.76.22-1.42.66-1.98.44-.56,1.02-1,1.73-1.31.72-.31,1.49-.46,2.33-.46.69,0,1.36.11,2,.32s1.22.53,1.72.93c.5.41.85.91,1.07,1.5l-1.48.54c-.12-.35-.35-.66-.69-.92s-.73-.46-1.19-.6c-.46-.14-.93-.21-1.43-.21-.55,0-1.07.08-1.54.27-.48.19-.87.44-1.16.77-.3.33-.45.71-.45,1.14,0,.52.14.92.41,1.19.28.28.65.48,1.13.62.48.14,1.01.26,1.61.36.84.14,1.62.37,2.34.67s1.3.71,1.73,1.22c.44.51.66,1.13.66,1.88s-.22,1.42-.66,1.98c-.44.56-1.02,1-1.73,1.31s-1.5.46-2.34.46Z"></path>
  </g>
  <g>
    <path class="cls-2" d="m153.91,100.74c-2.29,0-4.45-.46-6.46-1.37-2.02-.91-3.79-2.17-5.31-3.79-1.53-1.61-2.72-3.48-3.58-5.6-.86-2.12-1.3-4.39-1.3-6.81s.43-4.72,1.3-6.84c.86-2.12,2.06-3.99,3.58-5.59,1.52-1.61,3.3-2.86,5.31-3.78,2.02-.91,4.17-1.37,6.46-1.37,2.74,0,5.27.63,7.58,1.9s4.22,2.96,5.74,5.07l-6.49,3.49c-.84-.97-1.85-1.74-3.03-2.32-1.18-.58-2.45-.87-3.8-.87s-2.51.27-3.64.8-2.14,1.27-3,2.21c-.86.94-1.54,2.04-2.02,3.28s-.73,2.58-.73,4.02.24,2.75.73,3.99,1.16,2.34,2.02,3.28c.86.94,1.86,1.69,3,2.23,1.14.54,2.35.81,3.64.81,1.36,0,2.62-.29,3.8-.88,1.18-.59,2.19-1.38,3.03-2.36l6.49,3.53c-1.52,2.1-3.43,3.79-5.74,5.06-2.31,1.28-4.83,1.91-7.58,1.91Z"></path>
    <path class="cls-2" d="m186.34,100.74c-2.29,0-4.45-.46-6.46-1.37-2.02-.91-3.79-2.17-5.33-3.79-1.53-1.61-2.74-3.48-3.61-5.6s-1.31-4.39-1.31-6.81.44-4.69,1.31-6.81c.87-2.12,2.07-3.99,3.61-5.6,1.53-1.61,3.31-2.88,5.33-3.79,2.02-.91,4.17-1.37,6.46-1.37s4.47.46,6.49,1.37c2.02.91,3.79,2.17,5.33,3.79,1.53,1.61,2.73,3.48,3.6,5.6.86,2.12,1.29,4.39,1.29,6.81s-.43,4.69-1.29,6.81c-.86,2.12-2.06,3.99-3.6,5.6-1.53,1.61-3.31,2.88-5.33,3.79s-4.18,1.37-6.49,1.37Zm0-7.26c1.29,0,2.51-.27,3.64-.81,1.14-.54,2.14-1.28,3.01-2.23.87-.94,1.55-2.04,2.05-3.28.49-1.24.74-2.57.74-3.99s-.25-2.75-.74-3.99c-.49-1.24-1.17-2.34-2.05-3.28s-1.88-1.69-3.01-2.23c-1.14-.54-2.35-.81-3.64-.81s-2.51.27-3.64.81-2.14,1.28-3.01,2.23-1.55,2.04-2.05,3.28c-.49,1.24-.74,2.57-.74,3.99s.25,2.75.74,3.99c.49,1.24,1.17,2.34,2.05,3.28.87.94,1.88,1.69,3.01,2.23,1.14.54,2.35.81,3.64.81Z"></path>
    <path class="cls-2" d="m207.96,100.11v-33.89h13.8c1.86,0,3.53.47,5.04,1.4,1.5.94,2.69,2.19,3.57,3.76.88,1.57,1.32,3.3,1.32,5.19,0,1.45-.24,2.8-.73,4.06-.48,1.25-1.17,2.36-2.07,3.32-.9.96-1.95,1.73-3.16,2.31l8.04,13.85h-8.38l-7.65-13.17h-2.52v13.17h-7.26Zm7.26-20.43h5.66c.65,0,1.23-.17,1.77-.5.53-.33.96-.77,1.28-1.32.32-.55.48-1.15.48-1.82s-.16-1.27-.48-1.82c-.32-.55-.75-.99-1.28-1.32s-1.12-.5-1.77-.5h-5.66v7.26Z"></path>
    <path class="cls-2" d="m262.35,66.22v7.26h-9.68v26.63h-7.26v-26.63h-9.68v-7.26h26.63Z"></path>
    <path class="cls-2" d="m272.32,66.22h8.18l12.3,33.89h-7.7l-1.94-5.33h-13.51l-1.94,5.33h-7.7l12.3-33.89Zm0,21.3h8.18l-4.12-11.23-4.07,11.23Z"></path>
    <path class="cls-2" d="m296.59,100.11v-33.89h7.84l12.4,20.77v-20.77h7.26v33.89h-7.84l-12.4-20.77v20.77h-7.26Z"></path>
    <path class="cls-2" d="m340.19,66.22h8.18l12.3,33.89h-7.7l-1.94-5.33h-13.51l-1.94,5.33h-7.7l12.3-33.89Zm0,21.3h8.18l-4.12-11.23-4.07,11.23Z"></path>
  </g>
  <g>
    <path class="cls-3" d="m390.38,66.22v7.26h-9.68v26.63h-7.26v-26.63h-9.68v-7.26h26.63Z"></path>
    <path class="cls-3" d="m394.17,100.11v-33.89h21.59v7.26h-14.33v4.84h11.04v7.26h-11.04v7.26h14.33v7.26h-21.59Z"></path>
    <path class="cls-3" d="m434.41,100.74c-2.29,0-4.45-.46-6.46-1.37-2.02-.91-3.79-2.17-5.31-3.79-1.53-1.61-2.72-3.48-3.58-5.6-.86-2.12-1.3-4.39-1.3-6.81s.43-4.72,1.3-6.84c.86-2.12,2.06-3.99,3.58-5.59,1.52-1.61,3.3-2.86,5.31-3.78,2.02-.91,4.17-1.37,6.46-1.37,2.74,0,5.27.63,7.58,1.9s4.22,2.96,5.74,5.07l-6.49,3.49c-.84-.97-1.85-1.74-3.03-2.32-1.18-.58-2.45-.87-3.8-.87s-2.51.27-3.64.8-2.14,1.27-3,2.21c-.86.94-1.54,2.04-2.02,3.28s-.73,2.58-.73,4.02.24,2.75.73,3.99,1.16,2.34,2.02,3.28c.86.94,1.86,1.69,3,2.23,1.14.54,2.35.81,3.64.81,1.36,0,2.62-.29,3.8-.88,1.18-.59,2.19-1.38,3.03-2.36l6.49,3.53c-1.52,2.1-3.43,3.79-5.74,5.06-2.31,1.28-4.83,1.91-7.58,1.91Z"></path>
    <path class="cls-3" d="m471.46,66.22h7.26v33.89h-7.26v-14.53h-12.01v14.53h-7.26v-33.89h7.26v12.1h12.01v-12.1Z"></path>
  </g>
  <path class="cls-1" d="m28,82.66v7.33c0,3.31,2.68,5.99,5.99,5.99h7.33c3.31,0,5.99-2.68,5.99-5.99v-7.33c0-3.31-2.68-5.99-5.99-5.99h-7.33c-3.31,0-5.99,2.68-5.99,5.99Zm32.62-25.3h-7.33c-3.31,0-5.99,2.68-5.99,5.99v7.33c0,3.31,2.68,5.99,5.99,5.99h7.33c3.31,0,5.99-2.68,5.99-5.99v-7.33c0-3.31-2.68-5.99-5.99-5.99Zm28.87,79.64h7.33c3.31,0,5.99-2.68,5.99-5.99v-7.33c0-3.31-2.68-5.99-5.99-5.99h-7.33c-3.31,0-5.99,2.68-5.99,5.99v7.33c0,3.31,2.68,5.99,5.99,5.99Zm13.32-66.32v-7.33c0-3.31-2.68-5.99-5.99-5.99h-7.33c-3.31,0-5.99,2.68-5.99,5.99v7.33c0,3.31-2.68,5.99-5.99,5.99h-4.92c-3.31,0-5.99,2.68-5.99,5.99v7.33c0,3.31,2.68,5.99,5.99,5.99h39.91c3.31,0,5.99-2.68,5.99-5.99v-7.33c0-3.31-2.68-5.99-5.99-5.99h-3.71c-3.31,0-5.99-2.68-5.99-5.99Zm-49.52,44.6h7.33c3.31,0,5.99-2.68,5.99-5.99v-7.33c0-3.31-2.68-5.99-5.99-5.99h-7.33c-3.31,0-5.99,2.68-5.99,5.99v7.33c0,3.31,2.68,5.99,5.99,5.99Z"></path>
</svg>